<?xml version="1.0" encoding="utf-8"?>
<!-- Generator: Adobe Illustrator 24.3.0, SVG Export Plug-In . SVG Version: 6.00 Build 0)  -->
<svg version="1.1" id="Layer_1" xmlns="http://www.w3.org/2000/svg" xmlns:xlink="http://www.w3.org/1999/xlink" x="0px" y="0px"
	 viewBox="0 0 160.3 153.1" style="enable-background:new 0 0 160.3 153.1;" xml:space="preserve">
<style type="text/css">
	.st0{fill:#50423A;}
</style>
<g>
	<g>
		<path class="st0" d="M84.8,31.3c3-9.4,11.1-15.3,18-13c6.9,2.2,10.1,11.6,7.1,21.1c-3,9.4-11.1,15.3-18,13.1
			C84.9,50.1,81.8,40.7,84.8,31.3z"/>
		<path class="st0" d="M137.5,44.8c-6.6-2.1-14.4,3.9-17.4,13.4s-0.1,18.9,6.4,21c6.6,2.1,14.4-3.9,17.4-13.4
			C147,56.3,144.1,46.9,137.5,44.8z"/>
		<path class="st0" d="M64.3,53.1c6.6-1.7,9.8-11,7-20.8c-2.8-9.8-10.4-16.4-17.1-14.8c-6.6,1.7-9.8,11-7,20.8
			C50,48.2,57.6,54.8,64.3,53.1z"/>
		<path class="st0" d="M41.1,56.7C37.9,47,29.9,40.8,23.3,42.7c-6.6,2-9.3,11.4-6,21.1c3.3,9.7,11.3,15.9,17.8,13.9
			C41.7,75.8,44.4,66.4,41.1,56.7z"/>
		<g>
			<path class="st0" d="M111.4,123.3c-0.1-0.2-0.3-0.2-0.5-0.2c-0.2,0-0.4,0.1-0.7,0.3c-0.5,0.4-0.6,0.8-0.3,1.1
				c0.3,0.3,0.7,0.3,1.2-0.1C111.6,124,111.7,123.6,111.4,123.3z"/>
			<path class="st0" d="M114.5,126.9c-0.1-0.1-0.2-0.2-0.4-0.2c-0.2,0-0.3,0.1-0.5,0.2l0.7,0.8C114.6,127.4,114.7,127.2,114.5,126.9
				z"/>
			<path class="st0" d="M70.1,93.1c-0.3-0.3-0.8-0.5-1.4-0.6c-0.7,0-1.3,0.3-1.7,0.9c-0.4,0.6-0.6,1.4-0.5,2.4
				c0.1,0.9,0.4,1.7,0.8,2.2c0.4,0.6,1,0.8,1.6,0.9c0.6,0,1-0.1,1.3-0.4c0.3-0.3,0.4-0.7,0.4-1.3c0-0.6,0-1.6,0-2.8
				C70.6,93.8,70.5,93.4,70.1,93.1z"/>
			<path class="st0" d="M113.3,111.3c0.1,0,0.1,0,0.2-0.1c0.4-0.3,0.6-0.7,0.5-1.2c-0.1-0.5-0.4-1-0.9-1.4c-0.4-0.3-0.9-0.6-1.4-0.7
				c-0.5-0.1-0.9-0.1-1.3,0c-0.4,0.1-0.7,0.3-0.9,0.5c1.2,0.9,2.4,1.9,3.6,2.9C113.2,111.3,113.2,111.3,113.3,111.3z"/>
			<path class="st0" d="M82,53.2h-2.3c0,0-18.8,3.1-32.4,19.2c0.3-0.1,0.7-0.2,1-0.2c0.7,0,1.2,0.1,1.6,0.5c0.4,0.4,0.6,0.9,0.6,1.5
				c0,0.3,0,0.6-0.1,0.9l-1.7,11.2l8.4-0.4l0.7-11.5c0.1-0.9,0.3-1.6,0.8-2.1c0.5-0.6,1.1-0.9,2-0.9c0.7,0,1.3,0.1,1.7,0.5
				c0.4,0.4,0.6,0.9,0.7,1.6c0,0.2,0,0.4,0,0.6l-0.7,11.7l0.3,0c0.5,0,0.9,0.1,1.2,0.5c0.3,0.3,0.5,0.9,0.6,1.6
				c0.1,1.2-0.1,2-0.5,2.6c-0.4,0.6-1,0.9-1.7,0.9l-0.2,0l-0.5,8c-0.1,0.9-0.3,1.7-0.8,2.2c-0.5,0.6-1.1,0.9-1.9,0.9
				c-0.7,0-1.3-0.1-1.7-0.6c-0.4-0.4-0.7-1-0.7-1.6l0-0.4l0.5-8.3l-8.9,0.3l-1.4,9.3c-0.2,1.5-1.1,2.3-2.7,2.4
				c-0.7,0-1.3-0.1-1.7-0.4c-0.4-0.3-0.7-0.7-0.7-1.4c0-0.2,0-0.5,0.1-0.8l1.3-8.9l-0.2,0c-0.5,0-0.9-0.1-1.1-0.4
				c-0.2-0.3-0.4-0.8-0.4-1.5c-0.1-1.1,0.1-2,0.5-2.7c0.4-0.7,0.9-1,1.7-1l0.5,0l1.7-11.6c0-0.1,0-0.2,0.1-0.3
				c-6.9,9.1-12.1,21.8-12,39.7c-0.1,31.4,26,17.9,26,17.9s11-4.1,20.2-4.1l2.3-0.2c9.2,0,20.2,4,20.2,4s26.1,13.8,26-17.6
				C128.4,60.8,82,53.2,82,53.2z M123.8,119.4c-0.1,0.2-0.3,0.4-0.6,0.5c-0.3,0.1-0.6,0.2-1,0.2c-0.3,0-0.7,0-1.1-0.1
				c-0.2,0-0.3-0.1-0.3-0.2c-0.1-0.1-0.1-0.2-0.1-0.3c0-0.1,0.1-0.2,0.2-0.2c0.1,0,0.2-0.1,0.4-0.1c0,0,0.1,0,0.2,0
				c0.1,0,0.2,0,0.4,0c-0.1-0.2-0.1-0.3-0.1-0.5c0-0.2,0.2-0.3,0.5-0.5c0.2-0.1,0.5-0.1,0.7-0.1c0.3,0.1,0.5,0.2,0.6,0.4
				C123.8,118.9,123.9,119.2,123.8,119.4z M118.4,111.6c0.3-0.2,0.6-0.3,0.9-0.2c0.3,0.1,0.7,0.2,0.9,0.5c0.5,0.5,0.4,0.9-0.1,1.3
				c-0.3,0.2-0.6,0.4-1.1,0.7c0.7-0.1,1.4-0.1,2,0c0.6,0.1,1.2,0.5,1.6,1c0.3,0.4,0.5,0.8,0.5,1.2c0,0.4-0.1,0.8-0.4,1.2
				c-0.3,0.4-0.7,0.7-1.3,0.9c-0.8,0.4-1.6,0.5-2.3,0.3c-0.7-0.1-1.3-0.5-1.8-1c-0.2-0.3-0.4-0.5-0.3-0.7c0-0.2,0.2-0.4,0.5-0.5
				c0.3-0.2,0.5-0.2,0.7-0.2c0.2,0,0.4,0.1,0.5,0.2c0.5,0.5,1,0.6,1.5,0.3c0.2-0.1,0.3-0.2,0.4-0.4c0.1-0.1,0-0.3-0.1-0.4
				c-0.2-0.2-0.6-0.4-1.1-0.4c-0.5,0-1.1,0.1-1.7,0.2c-0.6,0.1-1,0.3-1.4,0.5c-0.5,0.3-1.5,0.8-2.7,1.6c-0.6,0.4-1,0.6-1.4,0.7
				c-0.3,0-0.6-0.1-0.9-0.3c-0.2-0.2-0.4-0.5-0.4-0.7c0-0.2,0.2-0.5,0.5-0.7c0.2-0.2,0.5-0.4,0.7-0.6c0.6-0.5,1.2-0.9,1.8-1.4
				c0.7-0.5,1.3-0.9,1.7-1.3c0.5-0.4,1.1-0.8,1.8-1.4C118,111.9,118.2,111.7,118.4,111.6z M113,102.1c-0.6,0.4-1.3,0.4-1.6-0.1
				c-0.3-0.4,0-1.1,0.6-1.4c0.6-0.4,1.3-0.4,1.6,0.1C113.9,101,113.6,101.7,113,102.1z M111.7,97.8c0.6-0.4,1.3-0.3,1.6,0.1
				c0.3,0.4,0,1.1-0.6,1.5c-0.6,0.4-1.3,0.3-1.6-0.1C110.8,98.8,111.1,98.2,111.7,97.8z M109.6,96.8c0.3-0.7,0.9-1.1,1.3-0.9
				c0.5,0.2,0.6,0.9,0.3,1.6c-0.3,0.7-0.9,1.1-1.3,0.9C109.5,98.2,109.4,97.5,109.6,96.8z M106.9,97c0.3-0.7,0.9-1.1,1.3-0.9
				c0.5,0.2,0.6,0.9,0.3,1.6c-0.3,0.7-0.9,1.1-1.3,0.9C106.8,98.4,106.7,97.7,106.9,97z M106.8,99.8c1.7-2,3.6-0.8,3.6-0.8l0.1,0.1
				c0,0,1.5,1.7-0.2,3.7c-1,1.2-1.5-0.1-1.5-0.1s-0.3-0.5-0.6-0.8l-0.1-0.1c-0.3-0.3-0.9-0.5-0.9-0.5S105.8,100.9,106.8,99.8z
				 M74.8,101.1c-0.2,0.2-0.4,0.3-0.7,0.3c-0.6-0.1-1-0.2-1.3-0.3c-0.3-0.2-0.6-0.5-0.9-0.9c-0.3,0.5-0.7,0.8-1.2,1
				c-0.5,0.2-1.1,0.3-1.8,0.3c-1.5,0-2.8-0.5-3.8-1.5c-1-1-1.7-2.3-1.9-4.1c-0.2-1.2,0-2.2,0.4-3.1c0.4-0.9,1.1-1.6,2-2.1
				c0.9-0.5,2-0.7,3.1-0.6c0.6,0,1.1,0.2,1.6,0.4c0.5,0.2,0.9,0.5,1.1,0.9c0-0.1,0-0.2,0.1-0.3c0-0.2,0.2-0.4,0.4-0.5
				c0.2-0.1,0.6-0.2,1.1-0.1c0.5,0.1,0.9,0.2,1.1,0.4c0.2,0.2,0.3,0.5,0.3,0.8c0,0.1,0,0.2,0,0.2c-0.1,0.5-0.3,1.3-0.4,2.5
				c-0.1,0.5-0.1,1.2-0.1,2.1c0,0.4,0,0.7,0,1.1c0,0.4,0,0.8,0.1,1c0.1,0.2,0.2,0.4,0.5,0.5c0.3,0.1,0.5,0.2,0.6,0.4
				c0.1,0.2,0.2,0.5,0.2,0.9C75,100.6,74.9,100.9,74.8,101.1z M86.4,93.8c-0.6,2-1.1,4-1.5,6c-0.1,0.5-0.1,0.9-0.1,1.2
				c0,0.3,0.1,0.5,0.1,0.7C85,101.9,85,102,85,102c-0.1,0.3-0.2,0.6-0.5,0.8c-0.3,0.2-0.6,0.2-1,0.1c-0.2-0.1-0.5-0.3-0.7-0.6
				c-0.2-0.3-0.4-0.7-0.4-1.1c-0.6,0.8-1.4,1.2-2.6,0.9c-1.1-0.2-2-0.8-2.6-1.8c-0.6-1-0.9-2.2-0.8-3.6c0.1-1.7,0.3-3.4,0.5-5.1
				c0-0.3,0.2-0.6,0.6-0.7c0.3-0.2,0.8-0.2,1.2-0.1c0.5,0.1,0.8,0.3,1.1,0.5c0.3,0.3,0.4,0.6,0.3,0.9c-0.3,1.6-0.6,3.3-0.8,5
				c-0.1,0.6,0,1.2,0.1,1.7c0.1,0.5,0.4,0.8,0.8,0.9c0.5,0.1,0.9-0.1,1.2-0.5c0.3-0.4,0.6-1.3,0.8-2.5c0.2-1.3,0.5-2.6,0.8-3.8
				c0.1-0.4,0.3-0.6,0.7-0.8c0.3-0.1,0.8-0.2,1.2,0c0.5,0.1,0.8,0.3,1.1,0.6C86.4,93.2,86.5,93.5,86.4,93.8z M95.1,99.5
				c-0.3,0.1-0.6,0.1-1-0.1c-0.4-0.2-0.6-0.3-0.7-0.5c-0.1-0.2-0.1-0.4,0-0.6c0.1-0.3,0.1-0.6,0-0.9c-0.1-0.2-0.4-0.5-0.9-0.6
				c-0.4-0.1-0.7-0.2-0.9-0.1c-0.3,0.1-0.4,0.2-0.5,0.4c-0.1,0.3,0,0.6,0.2,0.8c0.2,0.3,0.6,0.6,1.1,1c0.6,0.4,1,0.8,1.3,1.2
				c0.3,0.4,0.5,0.8,0.7,1.3c0.1,0.5,0,1.1-0.2,1.7c-0.3,0.7-0.7,1.2-1.3,1.6c-0.5,0.3-1.1,0.5-1.7,0.5c-0.6,0-1.2-0.1-1.7-0.2
				c-0.8-0.3-1.4-0.7-1.9-1.3c-0.5-0.6-0.9-1.3-1-2.2c0-0.2,0-0.4,0-0.5c0.1-0.3,0.3-0.5,0.6-0.7c0.3-0.2,0.7-0.2,1-0.1
				c0.2,0.1,0.3,0.1,0.4,0.3c0.1,0.1,0.1,0.2,0.2,0.3c0,0.1,0.1,0.2,0.1,0.2c0.2,0.6,0.4,1,0.6,1.2c0.2,0.3,0.4,0.4,0.7,0.6
				c0.3,0.1,0.6,0.1,0.8,0.1c0.3-0.1,0.4-0.2,0.5-0.5c0.1-0.3,0.1-0.5-0.1-0.8c-0.2-0.2-0.5-0.6-1.1-1c-0.6-0.5-1-0.8-1.4-1.2
				c-0.3-0.3-0.6-0.8-0.8-1.3c-0.2-0.5-0.2-1.1,0-1.7c0.2-0.6,0.6-1.1,1.1-1.5c0.6-0.3,1.2-0.5,2-0.5c0.7,0,1.5,0.1,2.2,0.4
				c0.8,0.3,1.4,0.7,1.9,1.2c0.4,0.5,0.7,1,0.7,1.6c0.1,0.5,0,1.1-0.3,1.6C95.6,99.2,95.4,99.4,95.1,99.5z M99.1,107.9
				c-0.7,0.2-1.3,0.2-2-0.1c-0.9-0.4-1.3-1.2-1.4-2.2c0-1.1,0.4-2.5,1.3-4.4c0.3-0.6,0.5-0.9,0.7-1.2c-0.1-0.1-0.2-0.1-0.4-0.2
				c-0.7-0.3-0.9-0.8-0.5-1.5c0.2-0.3,0.4-0.5,0.7-0.6c0.3-0.1,0.6,0,1.1,0.2c0.1,0.1,0.3,0.1,0.4,0.2c0.5-0.7,1.2-1.5,2.1-2.4
				c0.2-0.2,0.5-0.4,0.9-0.4c0.3,0,0.7,0.1,1.1,0.3c0.4,0.2,0.7,0.5,0.8,0.8c0.1,0.3,0.1,0.6-0.1,0.8c0,0-0.1,0.1-0.1,0.1
				c-0.2,0.2-0.3,0.3-0.5,0.5c-0.8,0.8-1.3,1.4-1.6,1.7c0.4,0.2,0.7,0.4,0.9,0.5c0.6,0.3,0.7,0.8,0.3,1.4c-0.2,0.3-0.4,0.5-0.7,0.5
				c-0.3,0.1-0.6,0-1-0.2c-0.3-0.2-0.6-0.3-0.9-0.5c-0.2,0.2-0.4,0.6-0.7,1.1c-0.5,0.9-0.9,1.5-1.1,2c-0.2,0.5-0.3,0.8-0.3,1
				c0,0.2,0,0.3,0.2,0.4c0.1,0.1,0.3,0.1,0.4,0c0.1-0.1,0.2-0.3,0.4-0.5c0.3-0.5,0.8-0.7,1.4-0.3c0.4,0.2,0.6,0.4,0.6,0.6
				c0.1,0.2,0,0.5-0.2,0.8C100.3,107.1,99.8,107.6,99.1,107.9z M102.4,110.1c-0.3,0.1-0.6,0-0.9-0.2c-0.3-0.2-0.5-0.4-0.6-0.7
				c-0.1-0.3,0-0.6,0.2-0.9c1.4-2,2.8-4,4.4-5.9c0.2-0.3,0.5-0.4,0.9-0.4c0.4,0,0.7,0.1,1.1,0.3c0.4,0.2,0.6,0.5,0.7,0.8
				c0.1,0.3,0,0.6-0.3,0.9c-1.7,1.8-3.3,3.7-4.7,5.6C102.9,109.9,102.7,110.1,102.4,110.1z M105.7,110.1c0.2-0.8,0.7-1.6,1.3-2.3
				c0.7-0.8,1.5-1.3,2.4-1.6c0.9-0.3,1.9-0.4,2.8-0.2c1,0.2,1.8,0.6,2.6,1.2c0.7,0.6,1.1,1.2,1.4,1.9c0.2,0.7,0.2,1.4-0.1,2
				c-0.3,0.7-0.8,1.2-1.5,1.8c-0.5,0.3-0.8,0.5-1.2,0.6c-0.3,0-0.6-0.1-0.9-0.4c-1.3-1.2-2.7-2.3-4.2-3.4c-0.2,0.2-0.4,0.5-0.4,0.9
				c-0.1,0.3,0,0.7,0.1,1.1c0.1,0.4,0.4,0.7,0.8,1c0.4,0.3,0.7,0.4,1,0.5c0.3,0.1,0.7,0.1,1.2,0c0.3,0,0.6,0.1,0.7,0.2
				c0.2,0.2,0.3,0.4,0.3,0.7c0,0.3-0.1,0.5-0.4,0.7c-0.2,0.2-0.4,0.3-0.7,0.3c-0.5,0.1-1.1,0.2-1.7,0.1c-0.7-0.1-1.3-0.4-1.9-0.9
				c-0.7-0.6-1.2-1.2-1.4-1.9C105.5,111.6,105.5,110.9,105.7,110.1z M107.8,122.9l1.4-1.1l-1-1.2l-1.4,1.1l-0.4-0.5l3.4-2.7l0.4,0.5
				l-1.4,1.1l1,1.2l1.4-1.1l0.4,0.5l-3.4,2.7L107.8,122.9z M109.4,124.9c-0.3-0.3-0.3-0.6-0.3-1c0.1-0.4,0.3-0.7,0.7-1
				c0.4-0.3,0.8-0.5,1.2-0.5c0.4,0,0.7,0.2,1,0.5c0.3,0.3,0.3,0.6,0.3,1c-0.1,0.4-0.3,0.7-0.7,1c-0.4,0.3-0.8,0.5-1.2,0.5
				C110,125.4,109.6,125.2,109.4,124.9z M111.5,127.4c-0.1,0-0.3-0.1-0.4-0.3c-0.3-0.4-0.2-0.8,0.3-1.2l1.2-1l-0.3-0.3l0.5-0.4
				l0.3,0.3l0.5-0.4l0.6,0.4l-0.7,0.6l0.4,0.4l-0.5,0.4l-0.4-0.4l-1.1,0.9c-0.3,0.2-0.3,0.4-0.2,0.6c0.1,0.1,0.1,0.1,0.2,0.1
				L111.5,127.4z M112.4,128.6c-0.2-0.3-0.3-0.6-0.2-1c0.1-0.3,0.3-0.7,0.7-1c0.4-0.3,0.8-0.5,1.1-0.5c0.4,0,0.7,0.1,0.9,0.4
				c0.2,0.3,0.3,0.6,0.2,0.9s-0.3,0.6-0.7,0.9l-0.3,0.2l-1-1.3c-0.4,0.3-0.4,0.7-0.2,1c0.2,0.2,0.4,0.3,0.7,0.4l-0.5,0.4
				C112.9,129,112.6,128.9,112.4,128.6z M113.9,130.3l-0.4-0.5l3.6-2.8l0.4,0.5L113.9,130.3z M123.9,125c-0.3,0.1-0.5,0.1-0.7,0
				c-0.2-0.1-0.3-0.2-0.5-0.4c-0.1-0.2-0.2-0.3-0.1-0.4c0-0.1,0.2-0.2,0.3-0.3c0.2-0.1,0.4-0.2,0.5-0.3c0.1-0.1,0.1-0.3-0.1-0.5
				c-0.1-0.2-0.3-0.3-0.4-0.4c-0.2-0.1-0.3-0.1-0.5,0c-0.2,0.1-0.3,0.2-0.3,0.4c0,0.2,0,0.4,0.1,0.8c0.1,0.4,0.1,0.7,0,0.9
				c0,0.2-0.1,0.5-0.3,0.7c-0.2,0.2-0.5,0.4-1,0.5c-0.5,0.2-1,0.2-1.5,0.1c-0.5-0.1-0.8-0.2-1.1-0.4c-0.3-0.2-0.6-0.4-0.7-0.7
				c-0.3-0.4-0.3-0.7-0.3-1.2c0.1-0.4,0.3-0.8,0.7-1.1c0.1-0.1,0.2-0.2,0.3-0.2c0.2-0.1,0.4-0.1,0.7,0c0.3,0.1,0.4,0.2,0.6,0.3
				c0.1,0.1,0.1,0.2,0.1,0.2c0,0.1,0,0.1-0.1,0.2c0,0-0.1,0.1-0.1,0.1c-0.2,0.3-0.3,0.5-0.4,0.7c-0.1,0.2,0,0.3,0.1,0.5
				c0.1,0.1,0.2,0.2,0.4,0.3c0.2,0.1,0.3,0.1,0.5,0c0.2-0.1,0.3-0.2,0.3-0.3c0-0.2,0-0.4,0-0.7c0-0.4-0.1-0.7,0-0.9
				c0-0.2,0.1-0.5,0.3-0.8c0.2-0.3,0.5-0.5,0.9-0.7c0.4-0.2,0.9-0.2,1.3-0.2c0.5,0.1,0.9,0.2,1.3,0.5c0.4,0.2,0.7,0.6,0.9,0.9
				c0.2,0.4,0.4,0.8,0.3,1.1c0,0.3-0.2,0.6-0.4,0.8C124.7,124.8,124.3,124.9,123.9,125z"/>
			<path class="st0" d="M122.6,118.8c-0.1,0-0.1,0.1-0.2,0.1c0,0.1,0,0.1,0,0.2c0.1,0.1,0.1,0.1,0.2,0.1c0.1,0,0.2,0,0.3,0
				c0.2-0.1,0.2-0.2,0.1-0.3c0-0.1-0.1-0.1-0.2-0.1C122.8,118.8,122.7,118.8,122.6,118.8z"/>
		</g>
	</g>
</g>
</svg>
